<svg
   width="42.999996"
   height="2.9999886"
   viewBox="0 0 11.377082 0.79374697"
   version="1.1"
   id="svg5"
   xml:space="preserve"
   xmlns="http://www.w3.org/2000/svg"
   xmlns:svg="http://www.w3.org/2000/svg"><defs
     id="defs2" /><g
     id="layer1"
     transform="translate(-96.837502,-130.175)"><path
       id="rect236-54"
       style="fill:#fefefe;fill-opacity:1;stroke-width:1.066;stroke-linecap:round;stroke-linejoin:bevel;paint-order:fill markers stroke"
       d="m 96.8375,130.175 v 0.26458 h 0.264584 v 0.26459 0.26458 h 0.264583 0.264582 v -0.26458 h -0.264582 v -0.26459 -0.26458 h -0.264583 z m 1.322919,0 v 0.26458 h 0.26458 V 130.175 Z m 0.26458,0.26458 v 0.26459 h -0.26458 v -0.26459 h -0.26459 v 0.26459 0.26458 h 0.26459 0.26458 0.26458 v -0.26458 -0.26459 z m 0.52917,-0.26458 v 0.26458 0.26459 0.26458 h 0.26458 0.26458 0.264588 v -0.26458 -0.26459 h -0.264588 v 0.26459 h -0.26458 v -0.26459 h 0.26458 V 130.175 h -0.26458 z m 1.322911,0 v 0.26458 h 0.26459 V 130.175 Z m 0.26459,0.26458 v 0.26459 h 0.26458 v -0.26459 z m 0,0.26459 h -0.26459 v 0.26458 h 0.26459 z m -0.26459,0 v -0.26459 h -0.26458 v 0.26459 z m 1.05834,-0.52917 v 0.26458 H 101.6 V 130.175 Z m 0.26458,0.26458 v 0.26459 h -0.26458 v -0.26459 h -0.26459 v 0.26459 0.26458 h 0.26459 0.26458 0.26458 v -0.26458 -0.26459 z m 0.52917,-0.26458 v 0.26458 0.26459 0.26458 h 0.26458 0.26458 0.26459 v -0.26458 h -0.26459 -0.26458 v -0.26459 -0.26458 z m 2.11666,0 v 0.26458 0.26459 0.26458 h 0.26459 v -0.26458 -0.26459 H 104.775 V 130.175 h -0.26458 z m 0.52917,0.26458 v 0.26459 0.26458 h 0.26458 v -0.26458 -0.26459 z m 0.79375,-0.26458 v 0.26458 h 0.26458 V 130.175 Z m 0.26458,0.26458 v 0.26459 h -0.26458 v -0.26459 h -0.26458 v 0.26459 0.26458 h 0.26458 0.26458 0.26459 v -0.26458 -0.26459 z m 0.52917,-0.26458 v 0.26458 h 0.26458 v 0.26459 h 0.26459 v 0.26458 h 0.26458 v -0.26458 -0.26459 h -0.26458 V 130.175 h -0.26459 z m 1.05833,0 v 0.26458 0.26459 0.26458 h 0.26459 0.26458 0.26458 v -0.26458 H 107.95 v -0.26459 h 0.26458 V 130.175 H 107.95 107.68542 Z m -3.96875,0.52917 v 0.26458 h 0.26459 v -0.26458 z" /></g></svg>